   <svg
            width="36"
            height="16"
            viewBox="0 0 36 16"
            fill="none"
            xmlns="http://www.w3.org/2000/svg"
          >
            <path
              d="M5.36636 3.3437C5.28036 2.6657 5.61636 1.9477 5.99836 1.5077C6.42436 0.993704 7.15836 0.625703 7.76036 0.595703C7.83436 1.3017 7.55436 1.9917 7.14236 2.5057C6.71636 3.0057 6.04236 3.4017 5.36636 3.3437Z"
              fill="#0C0C0C"
            />
            <path
              d="M10.2403 9.34784C10.2243 9.39184 9.9923 10.1978 9.4203 11.0318C8.9223 11.7638 8.4103 12.4818 7.5903 12.4958C6.8003 12.5098 6.5363 12.0278 5.6283 12.0278C4.7203 12.0278 4.4283 12.4818 3.6823 12.5118C2.8923 12.5418 2.2923 11.7338 1.7943 11.0038C0.770302 9.52384 -0.00569791 6.82984 1.0483 5.01384C1.5603 4.10384 2.4963 3.53384 3.5063 3.51784C4.2823 3.50384 4.9983 4.02984 5.4683 4.02984C5.9363 4.02984 6.7703 3.41384 7.7503 3.47384C8.1303 3.50384 9.2283 3.61984 9.9323 4.65984C9.8743 4.70584 8.6303 5.42184 8.6443 6.92984C8.6583 8.73184 10.2243 9.33184 10.2403 9.34784Z"
              fill="#0C0C0C"
            />
            <path
              d="M16.2904 1.43359H12.1724V12.4196H13.8784V8.66759H16.2384C18.3924 8.66759 19.9084 7.19159 19.9084 5.04359C19.9064 2.90359 18.4244 1.43359 16.2904 1.43359ZM15.8344 7.23359H13.8784V2.87159H15.8424C17.3184 2.87159 18.1644 3.66359 18.1644 5.04959C18.1644 6.4356 17.3184 7.23359 15.8344 7.23359Z"
              fill="#0C0C0C"
            />
            <path
              d="M23.9763 4.26562C21.9963 4.26562 20.7643 5.33162 20.6723 6.77762H22.2243C22.3683 6.06162 22.9623 5.60563 23.9143 5.60563C24.9203 5.60563 25.5203 6.13762 25.5203 7.02962V7.64762L23.3283 7.77762C21.4243 7.88362 20.3523 8.74362 20.3523 10.1456C20.3523 11.5836 21.4483 12.5596 23.0163 12.5596C24.0683 12.5596 25.0803 11.9956 25.5443 11.1056H25.5823V12.4216H27.1583V6.90162C27.1603 5.29362 25.9183 4.26562 23.9763 4.26562ZM25.5223 9.41962C25.5223 10.4616 24.6243 11.2536 23.4743 11.2536C22.5923 11.2536 22.0143 10.7976 22.0143 10.0956C22.0143 9.41162 22.5703 8.97763 23.5503 8.90763L25.5223 8.78563V9.41962Z"
              fill="#0C0C0C"
            />
            <path
              d="M33.7182 4.41016H35.4542L32.4542 12.8382C31.7682 14.7802 30.9782 15.4042 29.3182 15.4042C29.1822 15.4042 28.7702 15.3882 28.6482 15.3662V14.0342C28.7682 14.0642 29.0422 14.0642 29.1802 14.0642C29.9422 14.0642 30.3522 13.7442 30.6042 12.9222C30.6042 12.9062 30.7482 12.4362 30.7482 12.4282L27.8562 4.41016H29.6382L31.6642 10.9282H31.6942L33.7182 4.41016Z"
              fill="#0C0C0C"
            />
            <path
              d="M5.36636 3.3437C5.28036 2.6657 5.61636 1.9477 5.99836 1.5077C6.42436 0.993704 7.15836 0.625703 7.76036 0.595703C7.83436 1.3017 7.55436 1.9917 7.14236 2.5057C6.71636 3.0057 6.04236 3.4017 5.36636 3.3437Z"
              fill="#0C0C0C"
            />
            <path
              d="M10.2403 9.34784C10.2243 9.39184 9.9923 10.1978 9.4203 11.0318C8.9223 11.7638 8.4103 12.4818 7.5903 12.4958C6.8003 12.5098 6.5363 12.0278 5.6283 12.0278C4.7203 12.0278 4.4283 12.4818 3.6823 12.5118C2.8923 12.5418 2.2923 11.7338 1.7943 11.0038C0.770302 9.52384 -0.00569791 6.82984 1.0483 5.01384C1.5603 4.10384 2.4963 3.53384 3.5063 3.51784C4.2823 3.50384 4.9983 4.02984 5.4683 4.02984C5.9363 4.02984 6.7703 3.41384 7.7503 3.47384C8.1303 3.50384 9.2283 3.61984 9.9323 4.65984C9.8743 4.70584 8.6303 5.42184 8.6443 6.92984C8.6583 8.73184 10.2243 9.33184 10.2403 9.34784Z"
              fill="#0C0C0C"
            />
            <path
              d="M16.2904 1.43359H12.1724V12.4196H13.8784V8.66759H16.2384C18.3924 8.66759 19.9084 7.19159 19.9084 5.04359C19.9064 2.90359 18.4244 1.43359 16.2904 1.43359ZM15.8344 7.23359H13.8784V2.87159H15.8424C17.3184 2.87159 18.1644 3.66359 18.1644 5.04959C18.1644 6.4356 17.3184 7.23359 15.8344 7.23359Z"
              fill="#0C0C0C"
            />
            <path
              d="M23.9763 4.26562C21.9963 4.26562 20.7643 5.33162 20.6723 6.77762H22.2243C22.3683 6.06162 22.9623 5.60563 23.9143 5.60563C24.9203 5.60563 25.5203 6.13762 25.5203 7.02962V7.64762L23.3283 7.77762C21.4243 7.88362 20.3523 8.74362 20.3523 10.1456C20.3523 11.5836 21.4483 12.5596 23.0163 12.5596C24.0683 12.5596 25.0803 11.9956 25.5443 11.1056H25.5823V12.4216H27.1583V6.90162C27.1603 5.29362 25.9183 4.26562 23.9763 4.26562ZM25.5223 9.41962C25.5223 10.4616 24.6243 11.2536 23.4743 11.2536C22.5923 11.2536 22.0143 10.7976 22.0143 10.0956C22.0143 9.41162 22.5703 8.97763 23.5503 8.90763L25.5223 8.78563V9.41962Z"
              fill="#0C0C0C"
            />
            <path
              d="M35.4542 4.41016L32.4542 12.8382C31.7682 14.7802 30.9782 15.4042 29.3182 15.4042C29.1822 15.4042 28.7702 15.3882 28.6482 15.3662V14.0342C28.7682 14.0642 29.0422 14.0642 29.1802 14.0642C29.9422 14.0642 30.3522 13.7442 30.6042 12.9222C30.6042 12.9062 30.7482 12.4362 30.7482 12.4282L27.8562 4.41016H29.6382L31.6642 10.9282H31.6942L33.7202 4.41016H35.4542Z"
              fill="#0C0C0C"
            />
            <path
              d="M7.14236 2.5057C6.71636 3.0057 6.04236 3.4017 5.36636 3.3437C5.28036 2.6657 5.61636 1.9477 5.99836 1.5077C6.42436 0.993704 7.15836 0.625703 7.76036 0.595703C7.83236 1.3017 7.55436 1.9917 7.14236 2.5057Z"
              fill="#0C0C0C"
            />
            <path
              d="M10.2403 9.34784C10.2243 9.39184 9.9923 10.1978 9.4203 11.0318C8.9223 11.7638 8.4103 12.4818 7.5903 12.4958C6.8003 12.5098 6.5363 12.0278 5.6283 12.0278C4.7203 12.0278 4.4283 12.4818 3.6823 12.5118C2.8923 12.5418 2.2923 11.7338 1.7943 11.0038C0.770302 9.52384 -0.00569791 6.82984 1.0483 5.01384C1.5603 4.10384 2.4963 3.53384 3.5063 3.51784C4.2823 3.50384 4.9983 4.02984 5.4683 4.02984C5.9363 4.02984 6.7703 3.41384 7.7503 3.47384C8.1303 3.50384 9.2283 3.61984 9.9323 4.65984C9.8743 4.70584 8.6303 5.42184 8.6443 6.92984C8.6583 8.73184 10.2243 9.33184 10.2403 9.34784Z"
              fill="#0C0C0C"
            />
            <path
              d="M16.2904 1.43359H12.1724V12.4196H13.8784V8.66759H16.2384C18.3924 8.66759 19.9084 7.19159 19.9084 5.04359C19.9064 2.90359 18.4244 1.43359 16.2904 1.43359ZM15.8344 7.23359H13.8784V2.87159H15.8424C17.3184 2.87159 18.1644 3.66359 18.1644 5.04959C18.1644 6.4356 17.3184 7.23359 15.8344 7.23359Z"
              fill="#0C0C0C"
            />
            <path
              d="M23.9763 4.26562C21.9963 4.26562 20.7643 5.33162 20.6723 6.77762H22.2243C22.3683 6.06162 22.9623 5.60563 23.9143 5.60563C24.9203 5.60563 25.5203 6.13762 25.5203 7.02962V7.64762L23.3283 7.77762C21.4243 7.88362 20.3523 8.74362 20.3523 10.1456C20.3523 11.5836 21.4483 12.5596 23.0163 12.5596C24.0683 12.5596 25.0803 11.9956 25.5443 11.1056H25.5823V12.4216H27.1583V6.90162C27.1603 5.29362 25.9183 4.26562 23.9763 4.26562ZM25.5223 9.41962C25.5223 10.4616 24.6243 11.2536 23.4743 11.2536C22.5923 11.2536 22.0143 10.7976 22.0143 10.0956C22.0143 9.41162 22.5703 8.97763 23.5503 8.90763L25.5223 8.78563V9.41962Z"
              fill="#0C0C0C"
            />
            <path
              d="M33.7182 4.40918L31.6922 10.9272H31.6622L29.6362 4.40918H27.8542L30.7462 12.4272C30.7462 12.4352 30.6022 12.9072 30.6022 12.9212C30.3502 13.7432 29.9402 14.0632 29.1782 14.0632C29.0402 14.0632 28.7662 14.0632 28.6462 14.0332V15.3652C28.7662 15.3872 29.1782 15.4032 29.3162 15.4032C30.9762 15.4032 31.7682 14.7792 32.4522 12.8372L35.4522 4.40918H33.7182Z"
              fill="#0C0C0C"
            />
          </svg>