<svg width="24" height="24" viewBox="0 0 24 24" fill="none" xmlns="http://www.w3.org/2000/svg">
<path d="M22 8.75H2C1.86614 8.75 1.75 8.63386 1.75 8.5C1.75 8.36614 1.86614 8.25 2 8.25H22C22.1339 8.25 22.25 8.36614 22.25 8.5C22.25 8.63386 22.1339 8.75 22 8.75Z" fill="#7B8697" stroke="#7B8697"/>
<path d="M8 16.75H6C5.86614 16.75 5.75 16.6339 5.75 16.5C5.75 16.3661 5.86614 16.25 6 16.25H8C8.13386 16.25 8.25 16.3661 8.25 16.5C8.25 16.6339 8.13386 16.75 8 16.75Z" fill="#7B8697" stroke="#7B8697"/>
<path d="M14.5 16.75H10.5C10.3661 16.75 10.25 16.6339 10.25 16.5C10.25 16.3661 10.3661 16.25 10.5 16.25H14.5C14.6339 16.25 14.75 16.3661 14.75 16.5C14.75 16.6339 14.6339 16.75 14.5 16.75Z" fill="#7B8697" stroke="#7B8697"/>
<path d="M17.56 21.25H6.44C2.46 21.25 1.25 20.05 1.25 16.11V7.89C1.25 3.95 2.46 2.75 6.44 2.75H17.55C21.53 2.75 22.74 3.95 22.74 7.89V16.1C22.75 20.05 21.54 21.25 17.56 21.25ZM6.44 4.25C3.3 4.25 2.75 4.79 2.75 7.89V16.1C2.75 19.2 3.3 19.74 6.44 19.74H17.55C20.69 19.74 21.24 19.2 21.24 16.1V7.89C21.24 4.79 20.69 4.25 17.55 4.25H6.44Z" fill="#7B8697"/>
</svg>
