  <svg
            width="44"
            height="18"
            viewBox="0 0 44 18"
            fill="none"
            xmlns="http://www.w3.org/2000/svg"
          >
            <g clip-path="url(#clip0_9013_19061)">
              <path
                d="M20.838 8.80446V13.7877H19.25V1.4813H23.4615C23.9642 1.47084 24.464 1.5596 24.9321 1.74246C25.4002 1.92532 25.8273 2.19865 26.1887 2.54668C26.5537 2.87358 26.8443 3.27449 27.0407 3.72246C27.2372 4.17044 27.3351 4.65509 27.3278 5.14386C27.3383 5.63524 27.2419 6.12307 27.0453 6.57389C26.8487 7.02472 26.5564 7.42789 26.1887 7.75577C25.4522 8.4549 24.5432 8.80414 23.4615 8.80348H20.838V8.80446ZM20.838 2.9964V7.2923H23.501C23.7929 7.30092 24.0835 7.24878 24.354 7.13921C24.6246 7.02965 24.8692 6.86508 25.0722 6.65602C25.2741 6.46056 25.4346 6.22676 25.5443 5.96847C25.6539 5.71017 25.7103 5.43261 25.7103 5.15221C25.7103 4.8718 25.6539 4.59425 25.5443 4.33595C25.4346 4.07765 25.2741 3.84386 25.0722 3.6484C24.8717 3.43493 24.628 3.26633 24.3571 3.15375C24.0862 3.04118 23.7944 2.98721 23.501 2.99542H20.838V2.9964Z"
                fill="#5F6368"
              />
              <path
                d="M30.9871 5.09375C32.1608 5.09375 33.0873 5.406 33.7665 6.0305C34.4458 6.655 34.7851 7.51124 34.7844 8.59921V13.7887H33.2655V12.6202H33.1964C32.5389 13.5825 31.6644 14.0636 30.5729 14.0636C29.6411 14.0636 28.8616 13.7887 28.2343 13.2388C27.9333 12.9864 27.6926 12.6703 27.5298 12.3136C27.3671 11.9569 27.2863 11.5685 27.2934 11.1768C27.2934 10.3055 27.6241 9.61255 28.2856 9.09802C28.9471 8.5835 29.8302 8.32558 30.9348 8.32427C31.8778 8.32427 32.6543 8.49611 33.2645 8.83978V8.47843C33.2663 8.21137 33.2084 7.94725 33.0949 7.70523C32.9815 7.46322 32.8154 7.24937 32.6086 7.07919C32.1887 6.70202 31.6414 6.49622 31.0759 6.50281C30.1889 6.50281 29.4869 6.87528 28.9701 7.62023L27.5715 6.74338C28.3409 5.64363 29.4794 5.09375 30.9871 5.09375ZM28.9326 11.2111C28.9316 11.4123 28.9788 11.6109 29.0704 11.7902C29.162 11.9695 29.2954 12.1245 29.4593 12.2421C29.8105 12.5172 30.2464 12.6629 30.6932 12.6545C31.3633 12.6534 32.0056 12.3879 32.4794 11.9161C33.0054 11.4232 33.2684 10.8449 33.2684 10.1811C32.7733 9.78831 32.0829 9.59193 31.1972 9.59193C30.5522 9.59193 30.0143 9.74675 29.5836 10.0564C29.1486 10.3706 28.9326 10.7526 28.9326 11.2111Z"
                fill="#5F6368"
              />
              <path
                d="M43.5035 5.36719L38.2011 17.4988H36.5619L38.5296 13.254L35.043 5.36719H36.769L39.289 11.4158H39.3235L41.7745 5.36719H43.5035Z"
                fill="#5F6368"
              />
              <path
                d="M14.4209 7.7305C14.4215 7.24872 14.3806 6.76778 14.2986 6.29297H7.60156V9.01584H11.4373C11.3588 9.45072 11.1927 9.86527 10.9489 10.2345C10.7052 10.6038 10.3888 10.92 10.019 11.1643V12.9317H12.3082C13.6486 11.7014 14.4209 9.88189 14.4209 7.7305Z"
                fill="#4285F4"
              />
              <path
                d="M7.60272 14.6386C9.51912 14.6386 11.1327 14.0122 12.3094 12.932L10.0202 11.1646C9.38301 11.5947 8.5624 11.8401 7.60272 11.8401C5.75044 11.8401 4.17827 10.597 3.61607 8.92188H1.25781V10.7433C1.84887 11.9143 2.7552 12.8986 3.87561 13.5864C4.99602 14.2743 6.28641 14.6386 7.60272 14.6386Z"
                fill="#34A853"
              />
              <path
                d="M3.61443 8.92217C3.31722 8.04438 3.31722 7.09379 3.61443 6.216V4.39453H1.25617C0.758953 5.37955 0.5 6.46668 0.5 7.56908C0.5 8.67149 0.758953 9.75862 1.25617 10.7436L3.61443 8.92217Z"
                fill="#FBBC04"
              />
              <path
                d="M7.60272 3.29894C8.61545 3.28247 9.59401 3.6634 10.3269 4.35941L12.3538 2.34157C11.0685 1.13977 9.36586 0.479962 7.60272 0.500464C6.28641 0.500524 4.99602 0.86481 3.87561 1.55265C2.7552 2.2405 1.84887 3.22483 1.25781 4.39574L3.61607 6.21721C4.17827 4.54205 5.75044 3.29894 7.60272 3.29894Z"
                fill="#EA4335"
              />
            </g>
            <defs>
              <clipPath id="clip0_9013_19061">
                <rect
                  width="43"
                  height="17"
                  fill="white"
                  transform="translate(0.5 0.5)"
                />
              </clipPath>
            </defs>
          </svg>