 <svg
            width="42"
            height="26"
            viewBox="0 0 42 26"
            fill="none"
            xmlns="http://www.w3.org/2000/svg"
          >
            <path
              fill-rule="evenodd"
              clip-rule="evenodd"
              d="M21.0102 21.9809C23.1333 23.9372 25.9847 25.1236 29.0859 25.1236C35.7456 25.1236 41.1363 19.6916 41.1363 13.0105C41.1363 6.30902 35.7456 0.876953 29.0859 0.876953C25.9847 0.876953 23.1334 2.06317 21.0102 4.01964C18.5754 6.24639 17.0352 9.4518 17.0352 13.0105C17.0352 16.5695 18.5755 19.775 21.0102 21.9809Z"
              fill="#FAB31E"
            />
            <path
              fill-rule="evenodd"
              clip-rule="evenodd"
              d="M24.9025 11.7211C24.8609 11.284 24.7777 10.8677 24.6941 10.4307H17.3266C17.4099 9.99362 17.5345 9.57727 17.6594 9.16102H24.3405C24.1945 8.72424 24.0281 8.28699 23.8407 7.87074H18.1799C18.388 7.43396 18.6168 6.99671 18.8667 6.58046H23.1332C22.8626 6.1434 22.5506 5.70624 22.2174 5.3109H19.7822C20.1569 4.85312 20.5733 4.41605 21.0101 4.02062C18.8667 2.08496 16.036 0.87793 12.9142 0.87793C6.27511 0.87793 0.86377 6.30999 0.86377 13.0114C0.86377 19.6926 6.27511 25.1246 12.9142 25.1246C16.0361 25.1246 18.8667 23.9382 21.0101 21.9819C21.4474 21.5862 21.8428 21.17 22.2174 20.7121H19.7822C19.4492 20.296 19.1579 19.8797 18.8666 19.4219H23.1331C23.4036 19.0057 23.6325 18.5895 23.8406 18.1315H18.1798C17.9922 17.7153 17.8051 17.299 17.6593 16.8617H24.3405C24.486 16.4456 24.5899 16.0086 24.694 15.5715C24.7776 15.1553 24.8607 14.718 24.9024 14.2811C24.9439 13.8648 24.9648 13.4487 24.9648 13.0113C24.9649 12.5745 24.944 12.1373 24.9025 11.7211Z"
              fill="#E40520"
            />
            <path
              fill-rule="evenodd"
              clip-rule="evenodd"
              d="M39.5334 15.82C39.5334 15.5913 39.6998 15.4248 39.9081 15.4248C40.1368 15.4248 40.3034 15.5912 40.3034 15.82C40.3034 16.0281 40.1369 16.2157 39.9081 16.2157C39.6999 16.2157 39.5334 16.0281 39.5334 15.82ZM39.9081 16.1112C40.0745 16.1112 40.2202 15.9865 40.2202 15.82C40.2202 15.6534 40.0745 15.5285 39.9081 15.5285C39.7624 15.5285 39.6167 15.6534 39.6167 15.82C39.6167 15.9865 39.7625 16.1112 39.9081 16.1112ZM39.8664 15.9865H39.7832V15.6533H39.9289C39.95 15.6533 39.9913 15.6533 40.0121 15.6533C40.0538 15.6745 40.0538 15.7161 40.0538 15.7576C40.0538 15.7783 40.033 15.8199 39.9913 15.841L40.0746 15.9865H39.9706L39.929 15.8616H39.8665V15.9865V15.7993H39.9082C39.929 15.7993 39.95 15.7993 39.95 15.7783C39.9706 15.7783 39.9706 15.7576 39.9706 15.7368C39.9706 15.7368 39.9706 15.7161 39.95 15.7161C39.95 15.6949 39.9289 15.7161 39.9082 15.7161H39.8665V15.7993V15.9865H39.8664Z"
              fill="white"
            />
            <path
              fill-rule="evenodd"
              clip-rule="evenodd"
              d="M16.9103 16.5072C16.515 16.6111 16.2237 16.6736 15.9323 16.6736C15.3077 16.6736 14.9331 16.278 14.9331 15.5704C14.9331 15.425 14.9539 15.2791 14.9747 15.1126L15.058 14.6337L15.1205 14.2385L15.6825 10.8252H16.9313L16.7853 11.5744H17.5764L17.3891 12.8233H16.5983L16.2653 14.8628C16.2442 14.9672 16.2442 15.0292 16.2442 15.0709C16.2442 15.3419 16.3691 15.4456 16.6815 15.4456C16.827 15.4456 16.9518 15.425 17.0767 15.4039L16.9103 16.5072Z"
              fill="#06326E"
            />
            <path
              fill-rule="evenodd"
              clip-rule="evenodd"
              d="M20.9481 16.4652C20.4903 16.5901 20.0742 16.6523 19.6159 16.6523C18.2008 16.6523 17.3892 15.9031 17.3892 14.4252C17.3892 12.6981 18.3465 11.4492 19.6783 11.4492C20.7401 11.4492 21.4267 12.157 21.4267 13.2598C21.4267 13.6343 21.3852 13.9884 21.2811 14.4878H18.6794C18.6584 14.5712 18.6584 14.6128 18.6584 14.6543C18.6584 15.2371 19.054 15.5283 19.8032 15.5283C20.282 15.5283 20.6983 15.4247 21.1561 15.2165L20.9481 16.4652ZM20.1778 13.4889C20.1778 13.3848 20.1778 13.3014 20.1778 13.2392C20.1778 12.823 19.9493 12.5939 19.5536 12.5939C19.1374 12.5939 18.8458 12.9063 18.7212 13.4889H20.1778Z"
              fill="#06326E"
            />
            <path
              fill-rule="evenodd"
              clip-rule="evenodd"
              d="M6.92041 16.5693H5.63003L6.37928 11.8448L4.69347 16.5693H3.79853L3.69438 11.8658L2.9036 16.5693H1.63403L2.65385 10.4297H4.54788L4.58941 14.2174L5.85888 10.4297H7.94013L6.92041 16.5693Z"
              fill="#06326E"
            />
            <path
              fill-rule="evenodd"
              clip-rule="evenodd"
              d="M10.0631 14.3419C9.93811 14.3213 9.89658 14.3213 9.81333 14.3213C9.06389 14.3213 8.68936 14.6127 8.68936 15.0705C8.68936 15.383 8.87668 15.5911 9.16805 15.5911C9.79243 15.5912 10.0423 15.0706 10.0631 14.3419ZM11.1036 16.569H9.97983L10.0006 16.0489C9.70918 16.4441 9.31374 16.6523 8.62702 16.6523C8.00255 16.6523 7.46143 16.0907 7.46143 15.2787C7.46143 15.0502 7.50324 14.842 7.56539 14.6333C7.77352 13.8635 8.54368 13.3848 9.73008 13.3642C9.87558 13.3642 10.1045 13.3642 10.3127 13.3848C10.3544 13.2183 10.3544 13.156 10.3544 13.0517C10.3544 12.7187 10.0838 12.615 9.48014 12.615C9.10552 12.615 8.68927 12.6771 8.3979 12.7814L8.21077 12.8229L8.12752 12.8436L8.31474 11.7198C8.9183 11.5328 9.35546 11.4492 9.83414 11.4492C10.9579 11.4492 11.5615 11.9695 11.5615 12.9268C11.5615 13.1766 11.5823 13.3642 11.4991 13.9052L11.2077 15.695L11.1661 16.0073L11.1452 16.2572L11.1244 16.4236L11.1036 16.569Z"
              fill="#06326E"
            />
            <path
              fill-rule="evenodd"
              clip-rule="evenodd"
              d="M27.2333 11.6164C27.6078 11.6164 27.9409 11.7202 28.3986 11.9494L28.6277 10.6172C28.5029 10.5547 28.4612 10.5547 28.2946 10.4924L27.7742 10.3466C27.6078 10.305 27.3998 10.2842 27.1707 10.2842C26.5256 10.2842 26.151 10.305 25.7556 10.534C25.5475 10.6797 25.2769 10.8669 24.9855 11.2L24.819 11.1584L23.4869 12.0949L23.5494 11.5746H22.1759L21.3643 16.5696H22.6754L23.1539 13.8846C23.1539 13.8846 23.3413 13.51 23.4245 13.3852C23.6742 13.0732 23.8823 13.0732 24.153 13.0732C24.1945 13.0732 24.2362 13.0732 24.2572 13.0732C24.2153 13.3646 24.1945 13.6765 24.1945 14.0306C24.1945 15.6537 25.1104 16.6737 26.5256 16.6737C26.8794 16.6737 27.1916 16.6322 27.6703 16.5073L27.8991 15.0921C27.4829 15.3208 27.1081 15.4252 26.796 15.4252C26.0261 15.4252 25.5683 14.8425 25.5683 13.9263C25.5685 12.5736 26.2552 11.6164 27.2333 11.6164Z"
              fill="#06326E"
            />
            <path
              fill-rule="evenodd"
              clip-rule="evenodd"
              d="M38.2849 10.4298L37.9936 12.1779C37.6813 11.6995 37.3069 11.4703 36.8074 11.4703C36.1203 11.4703 35.4752 11.8659 35.0797 12.6153V12.5942L34.2472 12.0946L34.3305 11.5744H32.9361L32.1453 16.5693H33.4357L33.8726 13.8844C33.8726 13.8844 34.2056 13.5097 34.2889 13.385C34.497 13.1353 34.7051 13.0935 34.8716 13.073C34.7259 13.4891 34.6428 13.9888 34.6428 14.5504C34.6428 15.7995 35.288 16.6319 36.2454 16.6319C36.7241 16.6319 37.0987 16.4655 37.4525 16.0698L37.3901 16.5693H38.618L39.6169 10.4297L38.2849 10.4298ZM36.6825 15.3834C36.2453 15.3834 36.0164 15.0504 36.0164 14.405C36.0164 13.4266 36.4324 12.7191 37.0361 12.7191C37.4942 12.7191 37.723 13.0731 37.723 13.6975C37.723 14.6964 37.3068 15.3834 36.6825 15.3834Z"
              fill="#06326E"
            />
            <path
              fill-rule="evenodd"
              clip-rule="evenodd"
              d="M30.6675 14.3419C30.5425 14.3213 30.5009 14.3213 30.4177 14.3213C29.6685 14.3213 29.2938 14.6127 29.2938 15.0705C29.2938 15.383 29.4812 15.5911 29.7725 15.5911C30.3968 15.5912 30.6466 15.0706 30.6675 14.3419ZM31.708 16.569H30.5633L30.605 16.0489C30.3136 16.4441 29.9182 16.6523 29.2315 16.6523C28.5863 16.6523 28.0242 16.1112 28.0242 15.2787C28.0242 14.0923 28.9193 13.3642 30.3345 13.3642C30.4801 13.3642 30.7091 13.3642 30.8964 13.3848C30.9379 13.2183 30.9588 13.156 30.9588 13.0517C30.9588 12.7187 30.6884 12.615 30.0639 12.615C29.7102 12.615 29.273 12.6771 28.9818 12.7814L28.8153 12.8229L28.7319 12.8436L28.9193 11.7198C29.5229 11.5328 29.9598 11.4492 30.4385 11.4492C31.5623 11.4492 32.1452 11.9695 32.1452 12.9268C32.1452 13.1766 32.1866 13.3642 32.0826 13.9052L31.8119 15.695L31.7704 16.0073L31.7288 16.2572L31.708 16.4236V16.569Z"
              fill="#06326E"
            />
            <path
              fill-rule="evenodd"
              clip-rule="evenodd"
              d="M13.8301 12.6354C14.0799 12.6354 14.4337 12.6565 14.8083 12.7187L14.9956 11.5533C14.621 11.5118 14.1214 11.4492 13.8301 11.4492C12.3733 11.4492 11.8945 12.2403 11.8945 13.1559C11.8945 13.7594 12.1652 14.1966 12.8728 14.5296C13.393 14.7792 13.4763 14.8208 13.4763 15.0501C13.4763 15.3621 13.2058 15.5496 12.7063 15.5496C12.3108 15.5496 11.9363 15.4868 11.52 15.3414L11.3743 16.4858L11.3951 16.5068L11.6448 16.5484C11.728 16.569 11.8323 16.59 11.9779 16.6106C12.2901 16.6316 12.5607 16.6523 12.7271 16.6523C14.184 16.6523 14.7876 16.0906 14.7876 14.9872C14.7876 14.3002 14.4545 13.884 13.8093 13.5926C13.2474 13.343 13.185 13.3013 13.185 13.0726C13.185 12.8436 13.4347 12.6354 13.8301 12.6354Z"
              fill="#06326E"
            />
            <path
              fill-rule="evenodd"
              clip-rule="evenodd"
              d="M28.9817 10.2223L28.7527 11.5542C28.2946 11.3253 27.9616 11.2212 27.587 11.2212C26.6089 11.2212 25.922 12.1785 25.922 13.5315C25.922 14.4678 26.38 15.0298 27.1499 15.0298C27.4621 15.0298 27.8367 14.9262 28.253 14.7175L28.0242 16.1121C27.5455 16.237 27.2333 16.2996 26.8796 16.2996C25.4643 16.2996 24.5901 15.2796 24.5901 13.6353C24.5901 11.4501 25.7973 9.91016 27.5247 9.91016C27.7535 9.91016 27.9617 9.93097 28.1284 9.97259L28.6486 10.0975C28.8151 10.1598 28.8566 10.1806 28.9817 10.2223Z"
              fill="white"
            />
            <path
              fill-rule="evenodd"
              clip-rule="evenodd"
              d="M24.7776 11.1377C24.736 11.1377 24.694 11.1377 24.6526 11.1377C24.2153 11.1377 23.9657 11.3458 23.5702 11.9496L23.695 11.1793H22.509L21.6973 16.1745H23.0083C23.487 13.115 23.6118 12.5945 24.2362 12.5945C24.2777 12.5945 24.2777 12.5945 24.3195 12.5945C24.4443 11.9911 24.6108 11.5539 24.8191 11.1584L24.7776 11.1377Z"
              fill="white"
            />
            <path
              fill-rule="evenodd"
              clip-rule="evenodd"
              d="M17.2432 16.1115C16.8897 16.2364 16.5984 16.2779 16.3069 16.2779C15.6408 16.2779 15.2661 15.9034 15.2661 15.1752C15.2661 15.0503 15.2869 14.8834 15.3077 14.738L15.3911 14.2385L15.4534 13.8427L16.0156 10.4297H17.3059L17.16 11.1789H17.826L17.6596 12.4071H16.9936L16.64 14.4881C16.619 14.5715 16.619 14.6336 16.619 14.6963C16.619 14.9461 16.7439 15.0503 17.0563 15.0503C17.2017 15.0503 17.3268 15.0503 17.4101 15.0087L17.2432 16.1115Z"
              fill="white"
            />
            <path
              fill-rule="evenodd"
              clip-rule="evenodd"
              d="M12.2275 12.7611C12.2275 13.3855 12.5188 13.8226 13.2056 14.1557C13.7468 14.4054 13.83 14.4886 13.83 14.6968C13.83 15.0091 13.6012 15.1546 13.0808 15.1546C12.6853 15.1546 12.3315 15.0924 11.9153 14.9676L11.7278 16.1119L11.7903 16.133L12.0193 16.1746C12.1025 16.1952 12.2067 16.2163 12.3732 16.2163C12.6645 16.2578 12.9142 16.2578 13.0808 16.2578C14.4544 16.2578 15.0996 15.7374 15.0996 14.5928C15.0996 13.9058 14.829 13.5102 14.1838 13.1983C13.6219 12.9486 13.5594 12.8858 13.5594 12.6572C13.5594 12.3865 13.7884 12.2615 14.2047 12.2615C14.4543 12.2615 14.8082 12.2826 15.1411 12.3242L15.3284 11.1794C14.9954 11.1169 14.4752 11.0752 14.1838 11.0752C12.7269 11.0753 12.2067 11.8454 12.2275 12.7611Z"
              fill="white"
            />
            <path
              fill-rule="evenodd"
              clip-rule="evenodd"
              d="M38.9508 16.1742H37.723L37.7853 15.6953C37.4316 16.0699 37.0569 16.2364 36.5783 16.2364C35.6206 16.2364 34.9963 15.4251 34.9963 14.1759C34.9963 12.5111 35.9746 11.0958 37.1194 11.0958C37.6397 11.0958 38.0143 11.3247 38.3681 11.7828L38.6594 10.0342H39.95L38.9508 16.1742ZM37.0361 15.0088C37.6396 15.0088 38.056 14.3006 38.056 13.323C38.056 12.6775 37.8269 12.3446 37.3692 12.3446C36.7864 12.3446 36.3491 13.0315 36.3491 14.0095C36.3491 14.6757 36.5783 15.0088 37.0361 15.0088Z"
              fill="white"
            />
            <path
              fill-rule="evenodd"
              clip-rule="evenodd"
              d="M21.2394 16.0695C20.7816 16.2156 20.3654 16.2776 19.8864 16.2776C18.4297 16.2776 17.6804 15.5079 17.6804 14.0301C17.6804 12.3236 18.6377 11.0537 19.9492 11.0537C21.0312 11.0537 21.718 11.7613 21.718 12.8645C21.718 13.2391 21.6763 13.5927 21.5515 14.1133H18.9707C18.9499 14.1754 18.9499 14.217 18.9499 14.2586C18.9499 14.842 19.3453 15.1332 20.0946 15.1332C20.5734 15.1332 20.9896 15.05 21.4476 14.8209L21.2394 16.0695ZM20.5107 13.0932C20.5107 12.9895 20.5107 12.9063 20.5107 12.8436C20.5107 12.4273 20.2821 12.1985 19.8864 12.1985C19.4702 12.1985 19.1788 12.5108 19.054 13.0932H20.5107Z"
              fill="white"
            />
            <path
              fill-rule="evenodd"
              clip-rule="evenodd"
              d="M7.25323 16.1742H5.96295L6.71211 11.4496L5.0263 16.1742H4.13127L4.0273 11.4911L3.23633 16.1742H2.0293L3.04911 10.0342H4.92223L4.98467 13.8429L6.23333 10.0342H8.27305L7.25323 16.1742Z"
              fill="white"
            />
            <path
              fill-rule="evenodd"
              clip-rule="evenodd"
              d="M10.4793 13.9476C10.3545 13.9476 10.292 13.9264 10.1881 13.9264C9.45952 13.9264 9.0849 14.1973 9.0849 14.6968C9.0849 15.0091 9.2514 15.1963 9.54277 15.1963C10.084 15.1964 10.4586 14.6969 10.4793 13.9476ZM11.4367 16.1746H10.3545L10.3753 15.6539C10.0423 16.0702 9.60512 16.2578 9.00165 16.2578C8.29412 16.2578 7.81543 15.7168 7.81543 14.9047C7.81543 13.6766 8.64784 12.9691 10.1046 12.9691C10.2503 12.9691 10.4378 12.9901 10.6458 13.0107C10.6875 12.8443 10.6875 12.7821 10.6875 12.6988C10.6875 12.3659 10.4586 12.241 9.85496 12.241C9.48034 12.241 9.06409 12.2826 8.77281 12.3659L8.58549 12.428L8.46062 12.449L8.64793 11.3251C9.29302 11.1377 9.73027 11.0752 10.2089 11.0752C11.3326 11.0752 11.9363 11.5748 11.9363 12.5323C11.9363 12.782 11.9155 12.969 11.8323 13.5312L11.5408 15.3004L11.4991 15.6123L11.4783 15.8621L11.4576 16.0495L11.4367 16.1746Z"
              fill="white"
            />
            <path
              fill-rule="evenodd"
              clip-rule="evenodd"
              d="M31.0837 13.9476C30.938 13.9476 30.8756 13.9264 30.7924 13.9264C30.0432 13.9264 29.6686 14.1973 29.6686 14.6968C29.6686 15.0091 29.8559 15.1963 30.1473 15.1963C30.6675 15.1964 31.0629 14.6969 31.0837 13.9476ZM32.0409 16.1746H30.9588L30.9796 15.6539C30.6467 16.0702 30.2096 16.2578 29.6061 16.2578C28.8985 16.2578 28.4199 15.7168 28.4199 14.9047C28.4199 13.6766 29.2523 12.9691 30.7091 12.9691C30.8548 12.9691 31.0421 12.9901 31.2295 13.0107C31.271 12.8443 31.2919 12.7821 31.2919 12.6988C31.2919 12.3659 31.063 12.241 30.4594 12.241C30.0848 12.241 29.6479 12.2826 29.3563 12.3659L29.1899 12.428L29.065 12.449L29.2523 11.3251C29.8975 11.1377 30.3345 11.0752 30.8131 11.0752C31.937 11.0752 32.5199 11.5748 32.5199 12.5323C32.5199 12.782 32.5199 12.969 32.4155 13.5312L32.1453 15.3004L32.1035 15.6123L32.0619 15.8621L32.041 16.0495V16.1746H32.0409Z"
              fill="white"
            />
            <path
              fill-rule="evenodd"
              clip-rule="evenodd"
              d="M35.5375 11.1377C35.4958 11.1377 35.4541 11.1377 35.4126 11.1377C34.9755 11.1377 34.7259 11.3458 34.3303 11.9496L34.4551 11.1793H33.2691L32.478 16.1745H33.7685C34.2472 13.115 34.3721 12.5945 34.9964 12.5945C35.0381 12.5945 35.0381 12.5945 35.0798 12.5945C35.2046 11.9911 35.3711 11.5539 35.5792 11.1584L35.5375 11.1377Z"
              fill="white"
            />
          </svg>