<svg width="42" height="12" viewBox="0 0 42 12" fill="none" xmlns="http://www.w3.org/2000/svg">
<path d="M32.3621 2.31735C31.3512 2.31735 30.5516 2.58566 29.9403 2.70782L29.7518 4.24457C30.0577 4.09813 31.0217 3.83 31.8215 3.80544C32.621 3.78097 33.0912 3.9516 32.9269 4.63485C30.5516 4.63485 28.9522 5.12253 28.6231 6.65966C28.1524 9.29441 31.0457 9.2211 32.1978 8.07454L32.0565 8.70894H34.173L35.0905 4.51297C35.4664 2.73181 33.8436 2.29306 32.3621 2.31735ZM32.5032 6.61072C32.3856 7.17153 31.9391 7.41594 31.3983 7.4406C30.928 7.4646 30.5044 7.04966 30.8103 6.56206C31.0459 6.1475 31.7042 6.04972 32.1039 6.04972C32.2683 6.04972 32.4573 6.04972 32.6213 6.04972C32.5738 6.24491 32.5498 6.41591 32.5032 6.61072Z" fill="#107DB0"/>
<path d="M36.9007 0.657227L35.1497 8.70791H37.2997L39.0723 0.657227H36.9007Z" fill="#107DB0"/>
<path d="M27.0231 0.682617H23.087L21.3428 8.70856H23.6291L24.2185 6.04952H25.845C27.4475 6.04952 28.7676 5.07377 29.1213 3.41477C29.5214 1.53649 28.1545 0.682617 27.0231 0.682617ZM26.9528 3.41477C26.8109 4.02471 26.1981 4.51259 25.6086 4.51259H24.5482L25.0197 2.31715H26.1509C26.7406 2.31715 27.0941 2.80502 26.9528 3.41477Z" fill="#107DB0"/>
<path d="M11.749 2.31735C10.7501 2.31735 9.95996 2.58566 9.37928 2.70782L9.19356 4.24457C9.47228 4.09813 10.4251 3.83 11.2145 3.80544C12.0046 3.78097 12.4693 3.9516 12.3297 4.63485C9.98349 4.63485 8.40381 5.12253 8.0785 6.65966C7.61368 9.29441 10.4711 9.2211 11.5861 8.07454L11.4469 8.70894H13.561L14.4669 4.51297C14.8386 2.73181 13.2122 2.29306 11.749 2.31735ZM11.9114 6.61072C11.7953 7.17153 11.3306 7.41594 10.7963 7.4406C10.3316 7.4646 9.93681 7.04966 10.2388 6.56206C10.471 6.1475 11.1214 6.04972 11.4932 6.04972C11.6792 6.04972 11.8415 6.04972 12.0275 6.04972C11.9812 6.24491 11.9347 6.41591 11.9114 6.61072Z" fill="#1B557D"/>
<path d="M15.3879 2.43262H17.5017L17.8427 6.17052L19.9111 2.43262H22.0925L17.0699 11.3782H14.7061L16.2512 8.74818L15.3879 2.43262Z" fill="#1B557D"/>
<path d="M6.49093 0.682617H2.54452L0.795898 8.70856H3.11199L3.67899 6.04952H5.33293C6.91618 6.04952 8.23974 5.07377 8.59402 3.41477C8.99555 1.53649 7.64874 0.682617 6.49093 0.682617ZM6.41996 3.41477C6.27821 4.02471 5.68749 4.51259 5.09668 4.51259H4.00965L4.50596 2.31715H5.64015C6.20752 2.31715 6.58543 2.80502 6.41996 3.41477Z" fill="#1B557D"/>
<path d="M39.5365 1.69823V0.749196H39.1824V0.62207H40.0355V0.749196H39.6795V1.69823H39.5365Z" fill="#1B557D"/>
<path d="M40.1768 1.69823V0.62207H40.3899L40.6453 1.38379C40.6689 1.45466 40.686 1.50773 40.6968 1.54298C40.7092 1.50388 40.7284 1.44641 40.7541 1.37057L41.0124 0.62207H41.2041V1.69823H41.0671V0.797289L40.7529 1.69823H40.6248L40.3137 0.782571V1.69823H40.1768Z" fill="#1B557D"/>
</svg>
