 <svg
            width="42"
            height="14"
            viewBox="0 0 42 14"
            fill="none"
            xmlns="http://www.w3.org/2000/svg"
          >
            <path
              d="M15.075 12.9716L17.1045 1.05762H20.3533L18.32 12.9716H15.075Z"
              fill="#005098"
            />
            <path
              d="M30.0995 1.35112C29.4564 1.10952 28.4479 0.850586 27.1887 0.850586C23.98 0.850586 21.7197 2.46627 21.6997 4.78246C21.6816 6.49396 23.3131 7.44974 24.5451 8.01937C25.8097 8.60352 26.2348 8.97599 26.2294 9.49752C26.2203 10.2961 25.2193 10.6603 24.2853 10.6603C22.9862 10.6603 22.2958 10.4805 21.2292 10.0353L20.8112 9.84627L20.3552 12.5136C21.1129 12.8461 22.5155 13.1341 23.9728 13.1485C27.3869 13.1485 29.6017 11.5515 29.6271 9.07762C29.6398 7.72321 28.775 6.69205 26.9017 5.84118C25.7661 5.28974 25.0703 4.92224 25.0775 4.36396C25.0775 3.86887 25.6662 3.33927 26.9381 3.33927C27.9991 3.32249 28.7696 3.55415 29.3673 3.79574L29.6599 3.93337L30.0995 1.35112Z"
              fill="#005098"
            />
            <path
              d="M38.4268 1.06934H35.9175C35.1398 1.06934 34.5585 1.2814 34.2168 2.05727L29.3945 12.9763H32.805C32.805 12.9763 33.361 11.5082 33.4881 11.1857C33.8607 11.1857 37.173 11.1912 37.6472 11.1912C37.7434 11.6081 38.0415 12.9763 38.0415 12.9763H41.0557L38.4268 1.06934ZM34.4222 8.74915C34.691 8.06234 35.7159 5.41821 35.7159 5.41821C35.6977 5.44999 35.983 4.72821 36.1465 4.28084L36.3664 5.30824C36.3664 5.30824 36.9878 8.15224 37.1185 8.74915H34.4222Z"
              fill="#005098"
            />
            <path
              d="M12.3514 1.06641L9.17171 9.19144L8.83196 7.54078C8.24143 5.63653 6.39718 3.57431 4.33496 2.54231L7.24205 12.9625L10.6779 12.958L15.7908 1.06641H12.3514Z"
              fill="#005098"
            />
            <path
              d="M6.2228 1.05957H0.984518L0.94458 1.30716C5.01821 2.29369 7.71455 4.6771 8.83205 7.54116L7.69458 2.06523C7.49836 1.31073 6.9278 1.08591 6.2228 1.05957Z"
              fill="#F6A500"
            />
          </svg>